<?xml version="1.0" encoding="UTF-8" standalone="no"?>
<!DOCTYPE svg PUBLIC "-//W3C//DTD SVG 1.1//EN"
 "http://www.w3.org/Graphics/SVG/1.1/DTD/svg11.dtd">
<!-- Generated by graphviz version 5.0.0 (20220707.1540)
 -->
<!-- Title: UmlClassDiagram Pages: 1 -->
<svg width="962pt" height="612pt"
 viewBox="0.00 0.00 962.08 612.00" xmlns="http://www.w3.org/2000/svg" xmlns:xlink="http://www.w3.org/1999/xlink">
<g id="graph0" class="graph" transform="scale(1 1) rotate(0) translate(4 608)">
<title>UmlClassDiagram</title>
<polygon fill="white" stroke="transparent" points="-4,4 -4,-608 958.08,-608 958.08,4 -4,4"/>
<!-- 0 -->
<g id="node1" class="node">
<title>0</title>
<polygon fill="#f2f2f2" stroke="black" points="114,-387.3 114,-428.9 208.92,-428.9 208.92,-387.3 114,-387.3"/>
<text text-anchor="middle" x="161.46" y="-412.3" font-family="Times,serif" font-size="14.00">BaseLevel</text>
<text text-anchor="middle" x="161.46" y="-395.5" font-family="Times,serif" font-size="14.00">BaseLevel.sol</text>
</g>
<!-- 1 -->
<g id="node2" class="node">
<title>1</title>
<polygon fill="#f2f2f2" stroke="black" points="0,-191.9 0,-291.9 94.92,-291.9 94.92,-191.9 0,-191.9"/>
<text text-anchor="middle" x="47.46" y="-275.3" font-family="Times,serif" font-size="14.00">&lt;&lt;Struct&gt;&gt;</text>
<text text-anchor="middle" x="47.46" y="-258.5" font-family="Times,serif" font-size="14.00">Cells</text>
<text text-anchor="middle" x="47.46" y="-241.7" font-family="Times,serif" font-size="14.00">BaseLevel.sol</text>
<polyline fill="none" stroke="black" points="0,-233.5 94.92,-233.5 "/>
<text text-anchor="start" x="8" y="-216.9" font-family="Times,serif" font-size="14.00">row: uint8[]</text>
<text text-anchor="start" x="8" y="-200.1" font-family="Times,serif" font-size="14.00">col: uint8[]</text>
</g>
<!-- 1&#45;&gt;0 -->
<g id="edge1" class="edge">
<title>1&#45;&gt;0</title>
<path fill="none" stroke="black" d="M78.93,-292.06C87.1,-304.53 95.99,-317.84 104.46,-330 115.48,-345.83 128.2,-363.13 138.83,-377.32"/>
<polygon fill="black" stroke="black" points="138.92,-377.45 145.73,-379.84 146.14,-387.04 139.34,-384.65 138.92,-377.45"/>
</g>
<!-- 2 -->
<g id="node3" class="node">
<title>2</title>
<polygon fill="#f2f2f2" stroke="black" points="498.94,-366.5 498.94,-449.7 589.98,-449.7 589.98,-366.5 498.94,-366.5"/>
<text text-anchor="middle" x="544.46" y="-433.1" font-family="Times,serif" font-size="14.00">&lt;&lt;Enum&gt;&gt;</text>
<text text-anchor="middle" x="544.46" y="-416.3" font-family="Times,serif" font-size="14.00">CellValue</text>
<text text-anchor="middle" x="544.46" y="-399.5" font-family="Times,serif" font-size="14.00">BaseState.sol</text>
<polyline fill="none" stroke="black" points="498.94,-391.3 589.98,-391.3 "/>
<text text-anchor="start" x="506.94" y="-374.7" font-family="Times,serif" font-size="14.00">Empty: 0</text>
</g>
<!-- 3 -->
<g id="node4" class="node">
<title>3</title>
<polygon fill="#f2f2f2" stroke="black" points="389.94,-387.3 389.94,-428.9 480.98,-428.9 480.98,-387.3 389.94,-387.3"/>
<text text-anchor="middle" x="435.46" y="-412.3" font-family="Times,serif" font-size="14.00">BaseState</text>
<text text-anchor="middle" x="435.46" y="-395.5" font-family="Times,serif" font-size="14.00">BaseState.sol</text>
</g>
<!-- 4 -->
<g id="node5" class="node">
<title>4</title>
<polygon fill="#f2f2f2" stroke="black" points="463.72,-200.3 463.72,-283.5 567.2,-283.5 567.2,-200.3 463.72,-200.3"/>
<text text-anchor="middle" x="515.46" y="-266.9" font-family="Times,serif" font-size="14.00">&lt;&lt;Struct&gt;&gt;</text>
<text text-anchor="middle" x="515.46" y="-250.1" font-family="Times,serif" font-size="14.00">DefaultState</text>
<text text-anchor="middle" x="515.46" y="-233.3" font-family="Times,serif" font-size="14.00">BaseState.sol</text>
<polyline fill="none" stroke="black" points="463.72,-225.1 567.2,-225.1 "/>
<text text-anchor="start" x="471.72" y="-208.5" font-family="Times,serif" font-size="14.00">v: CellValue[9]</text>
</g>
<!-- 4&#45;&gt;2 -->
<g id="edge3" class="edge">
<title>4&#45;&gt;2</title>
<path fill="none" stroke="black" stroke-dasharray="5,2" d="M522.7,-283.91C526.58,-305.84 531.38,-333.03 535.49,-356.29"/>
<polygon fill="black" stroke="black" points="532.07,-357.09 537.26,-366.33 538.97,-355.87 532.07,-357.09"/>
</g>
<!-- 4&#45;&gt;3 -->
<g id="edge2" class="edge">
<title>4&#45;&gt;3</title>
<path fill="none" stroke="black" d="M495.48,-283.91C481.59,-312.41 463.37,-349.82 450.66,-375.9"/>
<polygon fill="black" stroke="black" points="450.5,-376.23 451.47,-383.37 445.25,-387.01 444.28,-379.87 450.5,-376.23"/>
</g>
<!-- 5 -->
<g id="node6" class="node">
<title>5</title>
<polygon fill="#f2f2f2" stroke="black" points="242.31,-486.7 242.31,-603.5 330.62,-603.5 330.62,-486.7 242.31,-486.7"/>
<text text-anchor="middle" x="286.46" y="-586.9" font-family="Times,serif" font-size="14.00">&lt;&lt;Enum&gt;&gt;</text>
<text text-anchor="middle" x="286.46" y="-570.1" font-family="Times,serif" font-size="14.00">CellValueL1</text>
<text text-anchor="middle" x="286.46" y="-553.3" font-family="Times,serif" font-size="14.00">Level.sol</text>
<polyline fill="none" stroke="black" points="242.31,-545.1 330.62,-545.1 "/>
<text text-anchor="start" x="250.31" y="-528.5" font-family="Times,serif" font-size="14.00">CellValue: 0</text>
<text text-anchor="start" x="250.31" y="-511.7" font-family="Times,serif" font-size="14.00">X: 1</text>
<text text-anchor="start" x="250.31" y="-494.9" font-family="Times,serif" font-size="14.00">O: 2</text>
</g>
<!-- 6 -->
<g id="node7" class="node">
<title>6</title>
<polygon fill="#f2f2f2" stroke="black" points="226.95,-366.5 226.95,-449.7 345.97,-449.7 345.97,-366.5 226.95,-366.5"/>
<text text-anchor="middle" x="286.46" y="-433.1" font-family="Times,serif" font-size="14.00">&lt;&lt;Struct&gt;&gt;</text>
<text text-anchor="middle" x="286.46" y="-416.3" font-family="Times,serif" font-size="14.00">StateL1</text>
<text text-anchor="middle" x="286.46" y="-399.5" font-family="Times,serif" font-size="14.00">Level.sol</text>
<polyline fill="none" stroke="black" points="226.95,-391.3 345.97,-391.3 "/>
<text text-anchor="start" x="234.95" y="-374.7" font-family="Times,serif" font-size="14.00">v: CellValueL1[9]</text>
</g>
<!-- 6&#45;&gt;5 -->
<g id="edge4" class="edge">
<title>6&#45;&gt;5</title>
<path fill="none" stroke="black" stroke-dasharray="5,2" d="M286.46,-449.97C286.46,-458.32 286.46,-467.31 286.46,-476.31"/>
<polygon fill="black" stroke="black" points="282.96,-476.43 286.46,-486.43 289.96,-476.43 282.96,-476.43"/>
</g>
<!-- 7 -->
<g id="node8" class="node">
<title>7</title>
<polygon fill="#f2f2f2" stroke="black" points="113.27,-154.3 113.27,-329.5 407.65,-329.5 407.65,-154.3 113.27,-154.3"/>
<text text-anchor="middle" x="260.46" y="-312.9" font-family="Times,serif" font-size="14.00">Level</text>
<text text-anchor="middle" x="260.46" y="-296.1" font-family="Times,serif" font-size="14.00">Level.sol</text>
<polyline fill="none" stroke="black" points="113.27,-287.9 407.65,-287.9 "/>
<text text-anchor="start" x="121.27" y="-271.3" font-family="Times,serif" font-size="14.00">Public:</text>
<text text-anchor="start" x="121.27" y="-254.5" font-family="Times,serif" font-size="14.00"> &#160;&#160;levelnum: uint8</text>
<text text-anchor="start" x="121.27" y="-237.7" font-family="Times,serif" font-size="14.00"> &#160;&#160;board: StateL1</text>
<polyline fill="none" stroke="black" points="113.27,-229.5 407.65,-229.5 "/>
<text text-anchor="start" x="121.27" y="-212.9" font-family="Times,serif" font-size="14.00">External:</text>
<text text-anchor="start" x="121.27" y="-196.1" font-family="Times,serif" font-size="14.00"> &#160;&#160;&#160;readCell(): (_cellValue: uint8)</text>
<text text-anchor="start" x="121.27" y="-179.3" font-family="Times,serif" font-size="14.00">Public:</text>
<text text-anchor="start" x="121.27" y="-162.5" font-family="Times,serif" font-size="14.00"> &#160;&#160;&#160;constructor(_levelnum: uint8, _board: StateL1)</text>
</g>
<!-- 7&#45;&gt;0 -->
<g id="edge5" class="edge">
<title>7&#45;&gt;0</title>
<path fill="none" stroke="black" d="M208.06,-329.81C201.57,-340.58 195.14,-351.24 189.23,-361.04"/>
<polygon fill="none" stroke="black" points="179.99,-356.03 173.49,-387.14 197.98,-366.87 179.99,-356.03"/>
</g>
<!-- 7&#45;&gt;3 -->
<g id="edge6" class="edge">
<title>7&#45;&gt;3</title>
<path fill="none" stroke="black" d="M352.83,-329.57C366.49,-342.38 379.99,-355.05 392,-366.32"/>
<polygon fill="none" stroke="black" points="385.05,-374.2 414.11,-387.07 399.42,-358.88 385.05,-374.2"/>
</g>
<!-- 7&#45;&gt;6 -->
<g id="edge7" class="edge">
<title>7&#45;&gt;6</title>
<path fill="none" stroke="black" d="M274.22,-329.81C275.66,-338.89 277.08,-347.89 278.43,-356.36"/>
<polygon fill="black" stroke="black" points="275,-357.08 280.02,-366.41 281.91,-355.98 275,-357.08"/>
</g>
<!-- 8 -->
<g id="node9" class="node">
<title>8</title>
<polygon fill="#f2f2f2" stroke="black" points="573.87,-0.5 573.87,-117.3 839.05,-117.3 839.05,-0.5 573.87,-0.5"/>
<text text-anchor="middle" x="706.46" y="-100.7" font-family="Times,serif" font-size="14.00">LevelConfigurator</text>
<text text-anchor="middle" x="706.46" y="-83.9" font-family="Times,serif" font-size="14.00">LevelConfigurator.sol</text>
<polyline fill="none" stroke="black" points="573.87,-75.7 839.05,-75.7 "/>
<text text-anchor="start" x="581.87" y="-59.1" font-family="Times,serif" font-size="14.00">Internal:</text>
<text text-anchor="start" x="581.87" y="-42.3" font-family="Times,serif" font-size="14.00"> &#160;&#160;&#160;_checkLevelNumber(): (pass: bool)</text>
<text text-anchor="start" x="581.87" y="-25.5" font-family="Times,serif" font-size="14.00">External:</text>
<text text-anchor="start" x="581.87" y="-8.7" font-family="Times,serif" font-size="14.00"> &#160;&#160;&#160;readLevel(_level: bytes[]): (word: bytes4)</text>
</g>
<!-- 9 -->
<g id="node10" class="node">
<title>9</title>
<polygon fill="#f2f2f2" stroke="black" points="314.98,-17.3 314.98,-100.5 555.94,-100.5 555.94,-17.3 314.98,-17.3"/>
<text text-anchor="middle" x="435.46" y="-83.9" font-family="Times,serif" font-size="14.00">BoardState</text>
<text text-anchor="middle" x="435.46" y="-67.1" font-family="Times,serif" font-size="14.00">TicTacToe.sol</text>
<polyline fill="none" stroke="black" points="314.98,-58.9 555.94,-58.9 "/>
<text text-anchor="start" x="322.98" y="-42.3" font-family="Times,serif" font-size="14.00">Public:</text>
<text text-anchor="start" x="322.98" y="-25.5" font-family="Times,serif" font-size="14.00"> &#160;&#160;Board: mapping(uint8=&gt;DefaultState)</text>
</g>
<!-- 9&#45;&gt;3 -->
<g id="edge8" class="edge">
<title>9&#45;&gt;3</title>
<path fill="none" stroke="black" d="M435.46,-100.75C435.46,-164.55 435.46,-287.69 435.46,-356.83"/>
<polygon fill="none" stroke="black" points="424.96,-357.09 435.46,-387.09 445.96,-357.09 424.96,-357.09"/>
</g>
<!-- 9&#45;&gt;4 -->
<g id="edge9" class="edge">
<title>9&#45;&gt;4</title>
<path fill="none" stroke="black" d="M453.41,-100.52C465.21,-127.21 480.73,-162.31 493.29,-190.74"/>
<polygon fill="black" stroke="black" points="490.18,-192.37 497.43,-200.1 496.59,-189.54 490.18,-192.37"/>
</g>
<!-- 10 -->
<g id="node11" class="node">
<title>10</title>
<polygon fill="#f2f2f2" stroke="black" points="856.84,-38.1 856.84,-79.7 954.08,-79.7 954.08,-38.1 856.84,-38.1"/>
<text text-anchor="middle" x="905.46" y="-63.1" font-family="Times,serif" font-size="14.00">TicTacToe</text>
<text text-anchor="middle" x="905.46" y="-46.3" font-family="Times,serif" font-size="14.00">TicTacToe.sol</text>
</g>
</g>
</svg>
