<?xml version="1.0" encoding="UTF-8" standalone="no"?>
<!DOCTYPE svg PUBLIC "-//W3C//DTD SVG 1.1//EN"
 "http://www.w3.org/Graphics/SVG/1.1/DTD/svg11.dtd">
<!-- Generated by graphviz version 5.0.0 (20220707.1540)
 -->
<!-- Title: StorageDiagram Pages: 1 -->
<svg width="2236pt" height="158pt"
 viewBox="0.00 0.00 2235.51 157.80" xmlns="http://www.w3.org/2000/svg" xmlns:xlink="http://www.w3.org/1999/xlink">
<g id="graph0" class="graph" transform="scale(1 1) rotate(0) translate(4 153.8)">
<title>StorageDiagram</title>
<polygon fill="white" stroke="transparent" points="-4,4 -4,-153.8 2231.51,-153.8 2231.51,4 -4,4"/>
<!-- 3 -->
<g id="node1" class="node">
<title>3</title>
<polygon fill="#f2f2f2" stroke="black" points="0,-50.1 0,-149.3 426.86,-149.3 426.86,-50.1 0,-50.1"/>
<text text-anchor="middle" x="213.43" y="-132.7" font-family="Courier New" font-size="14.00">Level &lt;&lt;Contract&gt;&gt;</text>
<polyline fill="none" stroke="black" points="0,-124.5 426.86,-124.5 "/>
<text text-anchor="middle" x="24.8" y="-107.9" font-family="Courier New" font-size="14.00">slot</text>
<polyline fill="none" stroke="black" points="0,-99.7 49.61,-99.7 "/>
<text text-anchor="middle" x="24.8" y="-83.1" font-family="Courier New" font-size="14.00">0</text>
<polyline fill="none" stroke="black" points="0,-74.9 49.61,-74.9 "/>
<text text-anchor="middle" x="24.8" y="-58.3" font-family="Courier New" font-size="14.00">1</text>
<polyline fill="none" stroke="black" points="49.61,-50.1 49.61,-124.5 "/>
<text text-anchor="middle" x="238.23" y="-107.9" font-family="Courier New" font-size="14.00">type: &lt;inherited contract&gt;.variable (bytes)</text>
<polyline fill="none" stroke="black" points="49.61,-99.7 426.86,-99.7 "/>
<text text-anchor="middle" x="137.32" y="-83.1" font-family="Courier New" font-size="14.00">unallocated (31)</text>
<polyline fill="none" stroke="black" points="225.03,-74.9 225.03,-99.7 "/>
<text text-anchor="middle" x="325.84" y="-83.1" font-family="Courier New" font-size="14.00">uint8: levelnum (1)</text>
<polyline fill="none" stroke="black" points="49.61,-74.9 426.86,-74.9 "/>
<text text-anchor="middle" x="237.92" y="-58.3" font-family="Courier New" font-size="14.00">StateL1: board (32)</text>
</g>
<!-- 2 -->
<g id="node3" class="node">
<title>2</title>
<polygon fill="#f2f2f2" stroke="black" points="462.86,-25.5 462.86,-99.9 713.3,-99.9 713.3,-25.5 462.86,-25.5"/>
<text text-anchor="middle" x="588.08" y="-83.3" font-family="Courier New" font-size="14.00">StateL1 &lt;&lt;Struct&gt;&gt;</text>
<polyline fill="none" stroke="black" points="462.86,-75.1 713.3,-75.1 "/>
<text text-anchor="middle" x="487.67" y="-58.5" font-family="Courier New" font-size="14.00">slot</text>
<polyline fill="none" stroke="black" points="462.86,-50.3 512.47,-50.3 "/>
<text text-anchor="middle" x="487.67" y="-33.7" font-family="Courier New" font-size="14.00">1</text>
<polyline fill="none" stroke="black" points="512.47,-25.5 512.47,-75.1 "/>
<text text-anchor="middle" x="612.88" y="-58.5" font-family="Courier New" font-size="14.00">type: variable (bytes)</text>
<polyline fill="none" stroke="black" points="512.47,-50.3 713.3,-50.3 "/>
<text text-anchor="middle" x="612.88" y="-33.7" font-family="Courier New" font-size="14.00">CellValueL1[9]: v (32)</text>
</g>
<!-- 3&#45;&gt;2 -->
<g id="edge1" class="edge">
<title>3:12&#45;&gt;2</title>
<path fill="none" stroke="black" d="M426.86,-62.7C435.16,-62.7 443.7,-62.7 452.31,-62.7"/>
<polygon fill="black" stroke="black" points="452.44,-66.2 462.44,-62.7 452.44,-59.2 452.44,-66.2"/>
</g>
<!-- 1 -->
<g id="node2" class="node">
<title>1</title>
<polygon fill="#f2f2f2" stroke="black" points="749.3,-0.5 749.3,-74.9 2227.51,-74.9 2227.51,-0.5 749.3,-0.5"/>
<text text-anchor="middle" x="1488.41" y="-58.3" font-family="Courier New" font-size="14.00">CellValueL1[9]: v &lt;&lt;Array&gt;&gt;</text>
<polyline fill="none" stroke="black" points="749.3,-50.1 2227.51,-50.1 "/>
<text text-anchor="middle" x="774.1" y="-33.5" font-family="Courier New" font-size="14.00">slot</text>
<polyline fill="none" stroke="black" points="749.3,-25.3 798.91,-25.3 "/>
<text text-anchor="middle" x="774.1" y="-8.7" font-family="Courier New" font-size="14.00">1</text>
<polyline fill="none" stroke="black" points="798.91,-0.5 798.91,-50.1 "/>
<text text-anchor="middle" x="1513.21" y="-33.5" font-family="Courier New" font-size="14.00">type: variable (bytes)</text>
<polyline fill="none" stroke="black" points="798.91,-25.3 2227.51,-25.3 "/>
<text text-anchor="middle" x="874.12" y="-8.7" font-family="Courier New" font-size="14.00">unallocated (23)</text>
<polyline fill="none" stroke="black" points="949.33,-0.5 949.33,-25.3 "/>
<text text-anchor="middle" x="1020.34" y="-8.7" font-family="Courier New" font-size="14.00">CellValueL1 (1)</text>
<polyline fill="none" stroke="black" points="1091.35,-0.5 1091.35,-25.3 "/>
<text text-anchor="middle" x="1162.36" y="-8.7" font-family="Courier New" font-size="14.00">CellValueL1 (1)</text>
<polyline fill="none" stroke="black" points="1233.37,-0.5 1233.37,-25.3 "/>
<text text-anchor="middle" x="1304.38" y="-8.7" font-family="Courier New" font-size="14.00">CellValueL1 (1)</text>
<polyline fill="none" stroke="black" points="1375.39,-0.5 1375.39,-25.3 "/>
<text text-anchor="middle" x="1446.4" y="-8.7" font-family="Courier New" font-size="14.00">CellValueL1 (1)</text>
<polyline fill="none" stroke="black" points="1517.41,-0.5 1517.41,-25.3 "/>
<text text-anchor="middle" x="1588.42" y="-8.7" font-family="Courier New" font-size="14.00">CellValueL1 (1)</text>
<polyline fill="none" stroke="black" points="1659.43,-0.5 1659.43,-25.3 "/>
<text text-anchor="middle" x="1730.44" y="-8.7" font-family="Courier New" font-size="14.00">CellValueL1 (1)</text>
<polyline fill="none" stroke="black" points="1801.45,-0.5 1801.45,-25.3 "/>
<text text-anchor="middle" x="1872.46" y="-8.7" font-family="Courier New" font-size="14.00">CellValueL1 (1)</text>
<polyline fill="none" stroke="black" points="1943.47,-0.5 1943.47,-25.3 "/>
<text text-anchor="middle" x="2014.48" y="-8.7" font-family="Courier New" font-size="14.00">CellValueL1 (1)</text>
<polyline fill="none" stroke="black" points="2085.49,-0.5 2085.49,-25.3 "/>
<text text-anchor="middle" x="2156.5" y="-8.7" font-family="Courier New" font-size="14.00">CellValueL1 (1)</text>
</g>
<!-- 2&#45;&gt;1 -->
<g id="edge2" class="edge">
<title>2:11&#45;&gt;1</title>
<path fill="none" stroke="black" d="M713.3,-37.7C721.81,-37.7 730.38,-37.7 738.99,-37.7"/>
<polygon fill="black" stroke="black" points="739.11,-41.2 749.11,-37.7 739.11,-34.2 739.11,-41.2"/>
</g>
</g>
</svg>
